<svg id="Layer_1" data-name="Layer 1" xmlns="http://www.w3.org/2000/svg" viewBox="0 0 101.59 32"><rect x="55.12" y="0.47" width="5.18" height="31.06"/><polygon points="75.3 0.47 75.3 16.88 69.65 0.47 69.65 0.47 64.47 0.47 64.47 31.53 69.65 31.53 69.65 15.11 75.3 31.53 75.3 31.53 80.48 31.53 80.48 0.47 75.3 0.47"/><path d="M47.25,20A11.46,11.46,0,0,0,39.9.5c-.25,0-.51,0-.77,0h-4.4V31.53H39.9V23.36a10.91,10.91,0,0,0,2.87-.57l4.45,8.74H53L47.19,20.07ZM39.9,5.7a6.28,6.28,0,0,1,0,12.46Z"/><path d="M88.65.68A15.7,15.7,0,0,0,86.06.47H83.47V31.53h2.59a14.68,14.68,0,0,0,2.59-.22,15.53,15.53,0,0,0,0-30.63Zm0,25.34V6a10.35,10.35,0,0,1,0,20Z"/><path d="M29,16H16v5.18h9.5a10.83,10.83,0,1,1,0-10.36h5.65A16,16,0,1,0,32,16Z"/></svg>